<svg height="100%" style="fill-rule:evenodd;clip-rule:evenodd;stroke-linejoin:round;stroke-miterlimit:2;" version="1.1" viewBox="0 0 64 64" width="100%" xml:space="preserve" xmlns="http://www.w3.org/2000/svg" xmlns:serif="http://www.serif.com/" xmlns:xlink="http://www.w3.org/1999/xlink">
  <path d="M12.853,23.384c-1.04,-0.332 -3.315,-0.827 -5.158,0.404c-1.427,0.953 -2.714,2.987 -2.718,7.212l-0.977,0c-0.552,0 -1,0.448 -1,1l0,17c0,0.552 0.448,1 1,1l2,0c0.796,0 1.559,-0.316 2.121,-0.879c0.563,-0.562 0.879,-1.325 0.879,-2.121l-0,-3.5l4.5,-0c0.944,-0 1.788,-0.437 2.337,-1.12c0.052,-0.035 0.101,-0.076 0.147,-0.122l11.053,-11.053l17.767,4.761c0.533,0.143 1.081,-0.174 1.224,-0.707l0.425,-1.584l3.477,0.931c1.601,0.429 3.246,-0.52 3.674,-2.121c0,0 1.117,-4.166 1.117,-4.166c-0,-0 4.128,-3.846 4.128,-3.846c-0,0 -0,0 -0,0c0.534,-0.498 0.757,-1.247 0.58,-1.955c-0.176,-0.709 -0.723,-1.267 -1.429,-1.456l-42.995,-11.549c-0.512,-0.138 -1.058,-0.066 -1.518,0.199c-0.46,0.265 -0.795,0.702 -0.932,1.214l-2.475,9.234c-0.142,0.534 0.174,1.082 0.707,1.225l2.463,0.66l-0.397,1.339Zm-3.853,16.116l-0,2l1.671,0c-0.111,-0.313 -0.171,-0.649 -0.171,-1c0,-0.351 0.06,-0.687 0.171,-1c-0,-0 -1.671,-0 -1.671,-0Zm4.5,0c0.552,0 1,0.448 1,1c0,0.552 -0.448,1 -1,1c-0.552,0 -1,-0.448 -1,-1c0,-0.552 0.448,-1 1,-1Zm-1.211,-14.213c-0.64,-0.239 -2.217,-0.681 -3.484,0.165c-1.111,0.742 -1.866,2.403 -1.829,5.711c0.427,0.147 0.82,0.39 1.145,0.716c0.563,0.562 0.879,1.325 0.879,2.121l-0,3.5l3.257,0l8.088,-8.088l-7.604,-2.037c-0.26,-0.07 -0.482,-0.242 -0.614,-0.477c-0.131,-0.236 -0.162,-0.514 -0.086,-0.773l0.248,-0.838Zm2.893,-2.724l-0.932,3.146c0,-0 30.105,8.066 30.105,8.066l1.874,-6.993l-2.9,-0.777l-2.527,2.85c-0.251,0.283 -0.641,0.401 -1.007,0.303l-24.613,-6.595Zm37.422,5.927l-0.931,3.477c-0.143,0.534 -0.692,0.851 -1.225,0.708l-3.478,-0.932l1.191,-4.444l4.443,1.191Zm-24.549,-10.346c0.704,0.188 1.122,0.913 0.934,1.616c-0.189,0.704 -0.913,1.122 -1.617,0.934c-0.704,-0.189 -1.122,-0.913 -0.933,-1.617c0.188,-0.704 0.912,-1.122 1.616,-0.933Zm-5.1,-1.367c0.704,0.189 1.122,0.913 0.933,1.617c-0.188,0.703 -0.913,1.122 -1.616,0.933c-0.704,-0.188 -1.122,-0.913 -0.934,-1.617c0.189,-0.703 0.913,-1.122 1.617,-0.933Zm-5.1,-1.367c0.704,0.189 1.122,0.913 0.933,1.617c-0.188,0.704 -0.913,1.122 -1.616,0.934c-0.704,-0.189 -1.122,-0.913 -0.934,-1.617c0.189,-0.704 0.913,-1.122 1.617,-0.934Z" style="fill:rgb(0,0,100);" />
</svg>
