<svg id="Layer_1" style="enable-background:new 0 0 70 70; fill:rgb(0,0,100);" version="1.1" viewBox="0 0 70 70" xml:space="preserve" xmlns="http://www.w3.org/2000/svg" xmlns:xlink="http://www.w3.org/1999/xlink">
  <g>
    <g>
      <g>
        <g>
          <g>
            <g>
              <path d="M21.95,6.1L17.2,16.37l1.99,0.92l22.35,10.33c1.75-2.67,5.23-3.74,8.22-2.36l9.17,4.24l3.13,1.45l5.44-6.13L24.77,5.06C23.7,4.57,22.44,5.03,21.95,6.1z M40.79,17.97c-0.17,0.37-0.53,0.58-0.91,0.58c-0.14,0-0.28-0.03-0.42-0.09l-14.6-6.75c-0.5-0.23-0.72-0.83-0.49-1.33c0.23-0.5,0.82-0.72,1.33-0.49l14.6,6.75C40.8,16.88,41.02,17.47,40.79,17.97z M45.78,20.28c-0.17,0.37-0.53,0.58-0.91,0.58c-0.14,0-0.28-0.03-0.42-0.09l-0.93-0.43c-0.5-0.23-0.72-0.83-0.49-1.33c0.23-0.5,0.83-0.72,1.33-0.49l0.93,0.43C45.79,19.18,46.01,19.78,45.78,20.28z"/>
              <path d="M58.09,31.32l-3.84,8.32l-37.4-17.29l1.5-3.24l23.92,11.05l0.94-1.44c0.85-1.29,2.27-2.06,3.82-2.06c0.65,0,1.29,0.14,1.89,0.42L58.09,31.32z"/>
            </g>
            <path d="M59.99,37.31c-0.71,1.52-1.64,2.59-3.16,1.89l-0.61-0.29l2.55-5.53l0.61,0.29C60.91,34.37,60.7,35.77,59.99,37.31z"/>
          </g>
          <g>
            <path d="M35.94,33.4c-1.06,2.28-3.76,3.26-6.04,2.21c-2.28-1.06-3.28-3.75-2.23-6.03L35.94,33.4z"/>
          </g>
          <g>
            <path d="M24.37,45.25h-9.36v2h9.36c-0.06-0.32-0.09-0.66-0.09-1C24.28,45.91,24.31,45.57,24.37,45.25z"/>
          </g>
          <g>
            <path d="M30.9,37.97v2.75c-0.32-0.06-0.66-0.09-1-0.09s-0.68,0.03-1,0.09v-3.37c0.05,0.03,0.11,0.05,0.16,0.08      C29.65,37.7,30.27,37.89,30.9,37.97z"/>
          </g>
        </g>
        <path d="M33.52,46.25c0,2-1.61,3.62-3.62,3.62s-3.62-1.61-3.62-3.62s1.61-3.62,3.62-3.62S33.52,44.24,33.52,46.25z"/>
      </g>
      <g>
        <path d="M3.5,65.14c-0.55,0-1-0.45-1-1V28.35c0-0.55,0.45-1,1-1s1,0.45,1,1v35.78C4.5,64.69,4.05,65.14,3.5,65.14z"/>
      </g>
      <path d="M12.51,37.72v17.05c0,1.4-1.13,2.54-2.54,2.54H5.5V35.18h4.47C11.38,35.18,12.51,36.32,12.51,37.72z"/>
    </g>
  </g>
</svg>
